<svg id="Layer_1" height="512" viewBox="0 0 512 512" width="512" xmlns="http://www.w3.org/2000/svg" data-name="Layer 1"><path d="m318.153 259.658 161.847-139.948v279.824zm-99.835 21.142-158.158 136.665h391.682l-158.15-136.665-27.225 23.5a15.893 15.893 0 0 1 -20.924 0zm-24.468-21.142-161.85 139.876v-279.824zm62.15 11.43 204.241-176.6h-408.482zm256-167.594a41.07 41.07 0 0 0 -41-41.006h-430a41.069 41.069 0 0 0 -41 41.006v304.969a41.024 41.024 0 0 0 41 41.006h430a41.024 41.024 0 0 0 41-41.006z" fill="#6c27b3" fill-rule="evenodd"/></svg>