<svg id="Layer_1" height="512" viewBox="0 0 512 512" width="512" xmlns="http://www.w3.org/2000/svg" data-name="Layer 1"><path d="m153.837 325.621-26.6 103.585-74.16 33.719 51.321-115.3 49.435-22zm11.981-256.678c-30.426 30.433-42.9 68.3-37.077 112.587 9.88 75.01 72.1 155.092 127.261 190.883 55.157-35.791 117.38-115.873 127.26-190.883 5.815-44.292-6.651-82.154-37.084-112.587-48.878-48.864-131.478-48.864-180.36.071zm293.111 393.982-74.167-33.719-26.6-103.585 49.45 22 51.321 115.3zm-202.929 15.288-96.4-46.292 21.17-82.511c21.567 23.431 44.949 42.791 67.23 55.65a16.009 16.009 0 0 0 16 0c22.274-12.859 45.656-32.219 67.23-55.65l21.175 82.511zm-178.337-149.235-70.974 159.522a15.954 15.954 0 0 0 21.239 21l112.722-51.218 108.422 52.15a16.068 16.068 0 0 0 13.859 0l108.429-52.15 112.708 51.218a15.959 15.959 0 0 0 21.246-21l-70.974-159.522a15.979 15.979 0 0 0 -8.108-8.072l-54.451-24.218c21.982-34.576 38.213-73.01 43.206-111.015 7.094-53.864-8.879-102.014-46.177-139.3-29.89-29.937-69.953-46.368-112.81-46.368s-82.917 16.431-112.8 46.363c-37.3 37.291-53.271 85.441-46.184 139.305 5 38 21.224 76.439 43.205 111.015l-54.443 24.218a15.911 15.911 0 0 0 -8.115 8.072zm126.437-156.593a51.9 51.9 0 1 1 51.9 51.936 51.956 51.956 0 0 1 -51.9-51.936zm135.8 0a83.9 83.9 0 1 1 -83.9-83.868 84.013 84.013 0 0 1 83.9 83.868z" fill="#6c27b3" fill-rule="evenodd"/></svg>