<svg id="Layer_1" height="512" viewBox="0 0 512 512" width="512" xmlns="http://www.w3.org/2000/svg" data-name="Layer 1"><path d="m50 82.654 11.668-11.644 100.832 100.799-19.052 19.074a15.922 15.922 0 0 0 -2.087 20 490.809 490.809 0 0 0 72.539 87.229 490.018 490.018 0 0 0 87.183 72.51 15.975 15.975 0 0 0 20.053-2.072l19.045-19.074 100.831 100.871-11.673 11.645c-15.916 15.93-37.512 21.645-59.229 15.645a456.76 456.76 0 0 1 -209.51-125.661c-.186-.214-.379-.357-.565-.571a456.687 456.687 0 0 1 -125.685-209.529c-5.98-21.717-.272-43.291 15.65-59.222zm58.536-50.649a18.728 18.728 0 0 0 -13.394 5.5l-10.842 10.859 100.828 100.8 10.845-10.787a19.064 19.064 0 0 0 0-26.861l-74.033-74.011a18.745 18.745 0 0 0 -13.4-5.5zm291.914 284.038a18.894 18.894 0 0 0 -26.8 0l-10.841 10.857 100.828 100.8 10.844-10.858a19.007 19.007 0 0 0 0-26.79l-74.031-74.01zm-262.758 58.294a488.493 488.493 0 0 0 223.931 134.163 97.219 97.219 0 0 0 25.654 3.572c24.01 0 46.713-9.5 64.694-27.433l45.142-45.149a51.067 51.067 0 0 0 0-72.081l-74.032-74.009a51.015 51.015 0 0 0 -72.052 0l-43.206 43.22a459.169 459.169 0 0 1 -71.017-60.865c-.186-.215-.379-.357-.565-.572a457.872 457.872 0 0 1 -60.851-71.009l43.2-43.22a50.939 50.939 0 0 0 0-72.01l-74.018-74.085a51.112 51.112 0 0 0 -72.06 0l-45.142 45.149c-24.289 24.292-32.99 57.222-23.87 90.37a488.492 488.492 0 0 0 134.192 223.959z" fill="#6c27b3" fill-rule="evenodd"/></svg>